<?xml version="1.0" encoding="UTF-8"?>
<svg id="layer_2" data-name="layer 2" xmlns="http://www.w3.org/2000/svg" viewBox="0 0 347.9483 540.76351">
  <defs>
    <style>
      .cls-1 {
        fill: #5d3e1c;
        stroke: #2aa054;
        stroke-miterlimit: 10;
        stroke-width: 2px;
      }
    </style>
  </defs>
  <g id="layer_1-2" data-name="layer 1">
    <path class="cls-1" d="M163.38395,152.66729c-2-9-2.82684-20.06709-6-28-2-5-1-4-5-12-1.19295-2.38591-2-2-2-7-2,5-2,7.55115-2,11,0,4,0,6,1,11,1.96556,9.8278-1-9,1,27,12-1,2,4.66669,13-2Z"/>
    <path class="cls-1" d="M151.38395,167.66729c2-9-10.44434-15.15283-4.54762-32.0151,2.45056-7.0076,.54762-1.9849,8.54762-13.9849,1.47967-2.21951,9.75841-7.11624,11-8-.88438,2.54852-3.16353,7.65412-4,11-1,4-2,6-1,11,1.96556,9.8278,0,1,7,31-12,1-4-2-17,1Z"/>
    <path class="cls-1" d="M172.38395,205.66729c-2-9,5.70145-25.39896-3-41-4.39487-7.87967-7-12-14-17-2.17065-1.55047-24.75841-17.11624-26-18,.88438,2.54852,11.16353,24.65412,12,28,1,4,4.09926,20.53683,4,24-.28714,10.01831-1.09113,7.28299,.90887,43.28299,11-6.66669,15.09113-12.6163,26.09113-19.28299Z"/>
    <path class="cls-1" d="M141.38395,242.66729c2-9-1.89673-24.13773,4-41,2.45056-7.0076,6.7823-18.9451,18-29,1.98636-1.78046,16.75841-11.11624,18-12-.88438,2.54852-6.16353,18.65412-7,22-1,4,.90074,19.53683,1,23,.28714,10.01831,3,21,1,57-11-6.66669-24-13.33331-35-20Z"/>
    <path class="cls-1" d="M184.38395,322.66729c-17.33333-.33331-19.99713,1.37376-37.33046,1.04045-1.24596-19.16608-3.18805-35.4256-5-48-4.64285-32.21991-9.34607-46.59326-17-60-1.98132-3.47052-3.78596-6.22046-5-8,3.1416,2.10315,7.75896,5.36829,13.01372,9.78986,.91826,.77264,1.72656,1.45667,2.82474,2.4436,.00008,.00006,.4785,.43011,.95473,.87006,1.5405,1.4231,5.24985,5.01312,6.20682,5.89648l.00101,.00098c.02454,.02362,.49785,.47882,1.23727,1.13953,3.36232,3.00427-4.42955-2.56535,20.09218,14.81905,4.15747,2.94739,14.6235,14.35767,17,16,3.66667,21.66669,4,42,3,64Z"/>
    <path class="cls-1" d="M143.38395,399.66729c-.1084-2.40393,0-32,0-37v-28c0-5.09902-.71736-10.41846,1-13,11.59747-6.94183,32.82062-16.33667,46-29,3.24059-3.11371,3.86249-2.15582,10-10,1.32207-1.6897-3.64392,10.89655-3,10-4,6-6.87552,6.50347-8,14-6,40-5,48-4,66,.8185,14.73306,.80608,35.17151,5,62-15.66667-11.66669-31.33333-23.33331-47-35Z"/>
    <path class="cls-1" d="M202.38395,471.66729c-17.33333-.33331-33.66667-2.66669-51-3-1.24596-19.16608-4.68805-41.9256-6.5-54.5-4.64285-32.21991-9.34607-46.59326-17-60-1.98132-3.47052-3.78596-6.22046-5-8,3.1416,2.10315,7.75896,5.36829,13.01372,9.78986,.91826,.77264,1.72656,1.45667,2.82474,2.4436,.00008,.00006,.4785,.43011,.95473,.87006,1.5405,1.4231,5.24985,5.01312,6.20682,5.89648l.00101,.00098c.02454,.02362,.49785,.47882,1.23727,1.13953,3.36232,3.00427,9.23999,7.4751,33.76172,24.8595,4.15747,2.94739,7.6235,5.35767,10,7,3.66667,21.66669,7.83333,51.83331,11.5,73.5Z"/>
    <path class="cls-1" d="M149.38395,539.66729c17.33333-.33331,40.66667,.33331,58,0-5-22-5-34-5-54,0-32.55271-2-30,2-44,1.09786-3.84251,6.78596-20.22046,8-22-3.1416,2.10315-3.34656,5.00886-8.60132,9.43043-.91826,.77264-1.72656,1.45667-2.82474,2.4436-.00008,.00006-.4785,.43011-.95473,.87006-1.5405,1.4231-5.24985,5.01312-6.20682,5.89648l-.00101,.00098c-.02454,.02362-.49785,.47882-1.23727,1.13953-3.36232,3.00427-9.23999,7.4751-33.76172,24.8595-4.15747,2.94739-7.6235,5.35767-10,7-3.66667,21.66669-.4124,45.35942,.5876,68.35942Z"/>
    <path class="cls-1" d="M298.57038,168.70638c2.77679-8.79144,4.56504-19.74436,8.41752-27.37052,2.42817-4.80666,1.34482-3.89762,6.02684-11.51856,1.39636-2.27285,2.1667-1.81808,2.60248-6.79905,1.55661,5.15528,1.33427,7.69672,1.03368,11.13245-.34862,3.98478-.52293,5.97717-1.9549,10.87099-2.81463,9.61909,1.78059-8.8786-3.34939,26.8101-11.86718-2.04206-2.39912,4.47462-12.77622-3.12541Z"/>
    <path class="cls-1" d="M309.21738,184.69516c-1.20799-9.14006,11.72525-14.18489,7.3206-31.49693-1.83049-7.19451-.37254-2.02507-7.29623-14.67665-1.2806-2.34002-7.69796-14.86568-8.8578-15.85429,.6589,2.6159,1.08129,14.82674,1.62297,18.23279,.64757,4.07193,1.46946,6.15148,.03749,11.0453-2.81463,9.61909-.08716,.99619-9.67518,30.27195,11.86718,2.04206,4.15909-1.64377,16.84815,2.47784Z"/>
    <path class="cls-1" d="M284.98539,220.7203c2.77679-8.79144-3.46609-25.79922,6.56196-40.58252,5.0649-7.46665,8.01923-11.34425,15.42837-15.71513,2.29753-1.35538,26.15597-14.89328,27.46986-15.66546-1.10314,2.46175-13.26979,23.58734-14.39469,26.84759-1.34482,3.89762-5.87356,20.10141-6.07651,23.56005-.5871,10.00521,.45223,7.35037-4.67775,43.03907-10.3771-7.60003-13.93413-13.88356-24.31123-21.48359Z"/>
    <path class="cls-1" d="M312.64267,260.28132c-1.20799-9.14006,3.99324-23.88057-.41141-41.19261-1.83049-7.19451-5.10533-19.46412-15.404-30.45844-1.82362-1.9468-15.7258-12.53453-16.88564-13.52313,.6589,2.6159,4.51427,19.12032,5.05594,22.52637,.64757,4.07193-2.60005,19.38399-3.00077,22.82532-1.1592,9.95516-4.81885,20.65862-5.96405,56.69594,11.53918-5.68261,25.07074-11.19085,36.60992-16.87346Z"/>
    <path class="cls-1" d="M262.83387,336.22922c17.29642,1.17865,19.80131,3.11139,37.09773,4.29004,2.91164-18.98455,6.26345-35.01294,9.16443-47.38157,7.43332-31.69265,15.85332-44.20135,22.16463-58.29003,1.67926-3.7486,8.84741-7.9989,12.12329-8.18036-5-2-14.64238,5.31819-20.26251,9.26496-.9821,.68967-1.84695,1.30064-3.02696,2.18811-.00008,.00005-.51417,.38677-1.02692,.78354-1.65867,1.28342-5.66679,4.53649-6.69711,5.33309l-.00109,.00089c-.0265,.02139-.53769,.43361-1.33188,1.02736-3.61136,2.6998,4.63628-2.16953-21.30728,13.01152-4.39853,2.57383-15.81921,13.02851-18.3298,14.45747-5.54109,21.26467-7.64531,41.49156-8.56653,63.495Z"/>
    <path class="cls-1" d="M297.96689,398.50958c.3175-2.38534,2.78897-31.87823,3.22475-36.8592l2.44035-27.89345c.44441-5.07962,1.62266-10.31629,.13683-13.03769-10.94832-7.9262-31.2719-19.135-43.29745-32.8988-2.95688-3.38429-3.6599-2.48426-9.09039-10.8335-1.16977-1.79849,2.68036,11.17267,2.11703,10.22341,3.46185,6.32579,5.88595,7.45694,6.74938,14.64397,4.82456,40.15873,.79751,48.25312-1.76748,66.09747-2.09945,14.60566-3.8684,34.96742-10.38461,61.3283,16.62387-10.25686,33.24772-20.51365,49.87159-30.77051Z"/>
    <path class="cls-1" d="M231.91621,483.09344c17.29642,1.17865,33.77098,.27769,51.0674,1.45634,2.91164-18.98455,8.32425-41.35747,11.22523-53.7261,7.43332-31.69265,19.026-43.17474,22.16463-58.29004,1.01048-4.86634,2.64596-16.19938,4.01048-17.86634-3.31295,1.82134-6.52957,15.00418-12.14969,18.95094-.9821,.68967-1.84695,1.30064-3.02696,2.18811-.00008,.00005-.51417,.38677-1.02692,.78354-1.65867,1.28342-5.66679,4.53649-6.69711,5.33309l-.00109,.00089c-.0265,.02139-.53769,.43361-1.33188,1.02736-3.61136,2.6998-9.85632,6.64134-35.79989,21.82238-4.39853,2.57383-8.06144,4.67285-10.57204,6.10181-5.54109,21.26467-12.32107,50.95336-17.86216,72.21803Z"/>
    <path class="cls-1" d="M279.38395,538.66729c-16,1-43,1-60,1,6.89839-21.48051,11.35593-50.65,12.31208-70.62713,.68792-14.37287,1.68792-24.37287-4.31208-37.37287-1.67467-3.62845-8.94568-33.12142-10-35,2.94635,2.36895,12.99967,11.03393,17.84907,15.89666,.84742,.84974,1.59304,1.6016,2.60102,2.6805,.00007,.00007,.43919,.47018,.87526,.94995,1.4106,1.55194,4.79295,5.4516,5.66929,6.415l.00092,.00106c.02238,.02567,.45422,.52039,1.13325,1.24303,3.08769,3.28588,8.95792,8.35835,31.8712,27.8138,3.88477,3.29852,13.85714,6.11476,14,9,1.05273,21.26147-8.99923,55.17468-12,78Z"/>
    <path class="cls-1" d="M91.68014,56.83158c2.77679-8.79144,4.56504-19.74436,8.41752-27.37052,2.42817-4.80666,1.34482-3.89762,6.02684-11.51856,1.39636-2.27285,2.1667-1.81808,2.60248-6.79905,1.55661,5.15528,1.33427,7.69672,1.03368,11.13245-.34862,3.98478-.52293,5.97717-1.9549,10.87099-2.81463,9.61909,1.78059-8.8786-3.34939,26.8101-11.86718-2.04206-2.39912,4.47462-12.77622-3.12541Z"/>
    <path class="cls-1" d="M96.32715,64.82036c-1.20799-9.14006,11.72525-14.18489,7.3206-31.49693-1.83049-7.19451-.37254-2.02507-7.29623-14.67665-1.2806-2.34002-7.69796-14.86568-8.8578-15.85429,.6589,2.6159,1.08129,14.82674,1.62297,18.23279,.64757,4.07193-1.06219,9.60712-1.73273,15.64202-1,9,0-1-7.90496,25.67523,11.86718,2.04206,4.15909-1.64377,16.84815,2.47784Z"/>
    <path class="cls-1" d="M72.09515,100.8455c2.77679-8.79144-3.46609-25.79922,6.56196-40.58252,5.0649-7.46665,8.01923-11.34425,15.42837-15.71513,2.29753-1.35538,26.15597-14.89328,27.46986-15.66546-1.10314,2.46175-13.26979,23.58734-14.39469,26.84759-1.34482,3.89762-5.87356,20.10141-6.07651,23.56005-.5871,10.00521,.45223,7.35037-4.67775,43.03907-10.3771-7.60003-13.93413-13.88356-24.31123-21.48359Z"/>
    <path class="cls-1" d="M99.75244,140.40652c-1.20799-9.14006,3.99324-23.88057-.41141-41.19261-1.83049-7.19451-5.10533-19.46412-15.404-30.45844-1.82362-1.9468-15.7258-12.53453-16.88564-13.52313,.6589,2.6159,4.51427,19.12032,5.05594,22.52637,.64757,4.07193-2.60005,19.38399-3.00077,22.82532-1.1592,9.95516-4.81885,20.65862-5.96405,56.69594,11.53918-5.68261,25.07074-11.19085,36.60992-16.87346Z"/>
    <path class="cls-1" d="M53.38395,217.66729c17.29642,1.17865,15.70358,.82135,33,2,2.91164-18.98455,1.92086-34.03578,4.82184-46.40441,7.43332-31.69265,15.85332-44.20135,22.16463-58.29003,1.67926-3.7486,7.73765-21.1241,11.01353-21.30556-10,6-15,16-19,20-1.37554,1.37554-1.99969,3.6908-3.17971,4.57827-.00008,.00005-.51417,.38677-1.02692,.78354-1.65867,1.28342-5.66679,4.53649-6.69711,5.33309l-.00109,.00089c-.0265,.02139-.53769,.43361-1.33188,1.02736-3.61136,2.6998,4.63628-2.16953-21.30728,13.01152-4.39853,2.57383-15.81921,13.02851-18.3298,14.45747-5.54109,21.26467,.79501,42.80443-.12621,64.80787Z"/>
    <path class="cls-1" d="M85.07665,278.63478c.3175-2.38534,2.78897-31.87823,3.22475-36.8592l2.44035-27.89345c.44441-5.07962,1.62266-10.31629,.13683-13.03769-10.94832-7.9262-31.2719-19.135-43.29745-32.8988-2.95688-3.38429-3.6599-2.48426-9.09039-10.8335-1.16977-1.79849,2.68036,11.17267,2.11703,10.22341,3.46185,6.32579,5.88595,7.45694,6.74938,14.64397,4.82456,40.15873,.79751,48.25312-1.76748,66.09747-2.09945,14.60566-3.8684,34.96742-10.38461,61.3283,16.62387-10.25686,33.24772-20.51365,49.87159-30.77051Z"/>
    <path class="cls-1" d="M19.02597,363.21863c17.29642,1.17865,33.77098,.27769,51.0674,1.45634,2.91164-18.98455,8.32425-41.35747,11.22523-53.7261,7.43332-31.69265,19.026-43.17474,22.16463-58.29004,1.01048-4.86634,2.64596-16.19938,4.01048-17.86634-3.31295,1.82134-6.52957,15.00418-12.14969,18.95094-.9821,.68967-1.84695,1.30064-3.02696,2.18811-.00008,.00005-.51417,.38677-1.02692,.78354-1.65867,1.28342-5.66679,4.53649-6.69711,5.33309l-.00109,.00089c-.0265,.02139-.53769,.43361-1.33188,1.02736-3.61136,2.6998-9.85632,6.64134-35.79989,21.82238-4.39853,2.57383-8.06144,4.67285-10.57204,6.10181-5.54109,21.26467-12.32107,50.95336-17.86216,72.21803Z"/>
    <path class="cls-1" d="M66.49372,418.79249c-16,1-43,1-60,1,6.89839-21.48051,11.35593-50.65,12.31208-70.62713,.68792-14.37287,1.68792-24.37287-4.31208-37.37287-1.67467-3.62845-8.94568-33.12142-10-35,2.94635,2.36895,12.99967,11.03393,17.84907,15.89666,.84742,.84974,1.59304,1.6016,2.60102,2.6805,.00007,.00007,.43919,.47018,.87526,.94995,1.4106,1.55194,4.79295,5.4516,5.66929,6.415l.00092,.00106c.02238,.02567,.45422,.52039,1.13325,1.24303,3.08769,3.28588,8.95792,8.35835,31.8712,27.8138,3.88477,3.29852,13.85714,6.11476,14,9,1.05273,21.26147-8.99923,55.17468-12,78Z"/>
    <path class="cls-1" d="M4.38395,539.66729c17.33333-.33331,56.66667,.33331,74,0-5-22-5-60-4-84,2.54607-24.82416,2-11,1-39-.76679-21.47023,4.31017-40.99713,8.1862-55.33936,2.56886-9.50531,5.70587-17.04224,8-22-3.1416,2.10315-3.34657,5.00885-8.60133,9.43042-.91826,.77264-1.72656,1.45667-2.82474,2.4436-.00008,.00006-.4785,.43011-.95473,.87006-1.5405,1.4231-5.24985,5.01312-6.20682,5.89648l-.00101,.00098c-.02454,.02362-.49785,.47882-1.23727,1.13953-3.36232,3.00427-9.23999,7.4751-33.76171,24.8595-4.15747,2.94739-33.2221,31.05646-35.5986,32.69879-3.66667,21.66669,1,100,2,123Z"/>
  </g>
</svg>