<?xml version="1.0" encoding="UTF-8"?>
<svg id="_イヤー_2" data-name="レイヤー 2" xmlns="http://www.w3.org/2000/svg" width="70.55555mm" height="50.44722mm" viewBox="0 0 200 143">
  <defs>
    <style>
      .cls-1 {
        fill: #abaaaa;
      }
    </style>
  </defs>
  <g id="_イヤー_1-2" data-name="レイヤー 1">
    <path class="cls-1" d="M185,77l-23,3L140,11l-8,23-13-6L103,0l-12,38-11-16-10,37-17,5-14,27-25,6L0,143H200l-15-66Zm-50-34l5-10,6,40-13-18,2-12Zm-32,5l5-27,7,20-8,19-25,12,21-24Zm-50,42l12-17,17-21-7,20-17,20-18,8,13-10ZM12,131l17-23,21-5-38,28Zm74-43l-28,20,24-25,9-8v8l8,6-13-1Zm13-7h-4l3-3,12-6,5-16,6,16,8,10-12-3-2-5-16,7Zm45,14h-21l-6-11,18,7v-20l25,37-16-13Zm24-4l-10-3,5-1,12,4,2-8,8,25-17-17Z"/>
  </g>
</svg>